<svg width="32" height="32" viewBox="0 0 82 32" fill="none" xmlns="http://www.w3.org/2000/svg">
<g id="Group 5">
<path id="Vector" d="M19.6021 26.417V31.2478C18.5301 31.5769 17.4178 31.7416 16.3001 31.7367C14.6508 31.7367 13.1705 31.2525 12.2401 30.1978C10.7609 31.4725 8.90001 31.9998 6.86552 31.9998C3.39446 31.9998 0.354492 29.8905 0.354492 25.3646C0.354492 20.968 3.44037 18.6829 7.92251 18.6829C8.95029 18.6702 9.97494 18.8034 10.9681 19.0787V18.1556C10.9681 16.6167 10.1641 15.6052 7.83294 15.6052C5.63386 15.6052 3.30825 16.1767 1.61751 16.8798V10.9431C3.68894 10.1958 6.39525 9.66846 8.55178 9.66846C14.2622 9.66846 17.7702 11.8662 17.7702 18.5921V25.1865C17.7702 26.1539 18.1924 26.5054 18.9112 26.5054C19.1437 26.4986 19.375 26.469 19.6021 26.417ZM10.9804 26.6812V23.0319C10.4983 22.8918 10.0007 22.8182 9.50017 22.813C7.93259 22.813 6.96293 23.4719 6.96293 25.2308C6.96293 26.8605 7.85085 27.4728 8.86642 27.4728C9.74874 27.4728 10.3836 27.2527 10.9759 26.6812H10.9804Z" fill="white"/>
<path id="Vector_2" d="M22.2178 16.4819H19.7231V10.2845H22.2178V7.95635C22.2178 1.75773 26.2353 0 29.787 0C31.3937 0 32.5358 0.220009 33.7619 0.747328V6.59324C33.0866 6.3274 32.37 6.19323 31.6479 6.19746C30.1677 6.19746 29.1532 6.85748 29.1532 8.39637V10.2868H32.9165V16.4843H29.1532V31.3842H22.2178V16.4819Z" fill="white"/>
<path id="Vector_3" d="M35.4531 4.06133C35.4531 1.61681 37.1248 0.585449 38.9858 0.585449C40.8467 0.585449 42.4803 1.61215 42.4803 4.06133C42.4803 6.51052 40.8467 7.61754 38.9858 7.61754C37.1248 7.61754 35.4531 6.50935 35.4531 4.06133Z" fill="white"/>
<path id="Vector_4" d="M42.4538 10.2847H35.5195V31.3856H42.4538V10.2847Z" fill="white"/>
<path id="Vector_5" d="M45.748 10.2842H52.006V12.1747C53.1907 10.7231 54.8814 9.66846 57.4186 9.66846C60.4205 9.66846 63.5075 11.8662 63.5075 16.2629V31.3852H56.5733V18.0648C56.5733 16.8775 55.9809 16.3502 54.9665 16.3502C53.9095 16.3502 53.1907 17.0102 52.6823 17.8448V31.3852H45.748V10.2842Z" fill="white"/>
<path id="Vector_6" d="M80.976 15.4275L74.0059 26.2532H81.3545V31.3856H66.0068V27.5232L74.1437 15.1481H66.3875V10.2847H80.976V15.4275Z" fill="white"/>
<path id="Vector_7" d="M81.0184 18.0488H66.4019V23.1334H81.0184V18.0488Z" fill="#D3FF00"/>
</g>
</svg>
